<?xml version="1.0" encoding="UTF-8" standalone="no"?>
<!DOCTYPE svg PUBLIC "-//W3C//DTD SVG 20010904//EN"
              "http://www.w3.org/TR/2001/REC-SVG-20010904/DTD/svg10.dtd">

<svg xmlns="http://www.w3.org/2000/svg"
     width="0.793333in" height="0.79in"
     viewBox="0 0 238 237">
  <path id="Auswahl #1"
        fill="none" stroke="black" stroke-width="1"
        d="M 28.00,28.00
           C 28.00,24.36 27.38,13.02 29.17,10.43
             31.36,7.28 35.82,8.09 37.69,11.23
             39.56,14.37 39.00,24.02 39.00,28.00
             39.00,28.00 58.00,28.00 58.00,28.00
             58.00,28.00 79.00,28.00 79.00,28.00
             88.79,28.18 88.60,34.32 84.77,37.26
             82.31,39.15 78.93,38.98 76.00,39.00
             76.00,39.00 49.00,39.00 49.00,39.00
             46.46,39.01 42.52,38.68 40.60,40.60
             38.68,42.52 39.01,46.46 39.00,49.00
             39.00,49.00 39.00,87.00 39.00,87.00
             38.98,89.81 39.16,93.39 37.26,95.69
             34.75,98.73 28.08,100.29 28.00,89.00
             28.00,89.00 28.00,39.00 28.00,39.00
             24.02,39.00 14.37,39.56 11.23,37.69
             8.09,35.82 7.28,31.36 10.43,29.17
             13.02,27.38 24.36,28.00 28.00,28.00 Z
           M 195.00,28.00
           C 195.00,24.02 194.44,14.37 196.31,11.23
             198.18,8.09 202.64,7.28 204.83,10.43
             206.62,13.02 206.00,24.36 206.00,28.00
             209.64,28.00 220.98,27.38 223.57,29.17
             226.72,31.36 225.91,35.82 222.77,37.69
             219.63,39.56 209.98,39.00 206.00,39.00
             206.00,39.00 206.00,44.00 206.00,44.00
             205.99,47.95 206.09,55.21 200.05,54.42
             193.63,53.59 195.97,44.30 193.98,41.31
             192.13,38.55 187.92,39.01 185.00,39.00
             185.00,39.00 116.00,39.00 116.00,39.00
             112.79,39.00 107.94,39.24 105.31,37.15
             102.38,34.80 102.78,30.34 106.23,28.74
             107.97,27.92 111.06,28.01 113.00,28.00
             113.00,28.00 136.00,28.00 136.00,28.00
             136.00,28.00 159.00,28.00 159.00,28.00
             159.00,28.00 195.00,28.00 195.00,28.00 Z
           M 195.00,148.00
           C 195.00,148.00 195.00,83.00 195.00,83.00
             195.00,80.11 194.81,75.75 196.31,73.19
             198.41,69.70 202.85,69.57 204.98,73.19
             206.19,75.19 206.00,78.66 206.00,81.00
             206.00,81.00 206.00,148.00 206.00,148.00
             206.00,155.78 205.16,174.54 207.00,181.00
             209.19,176.75 212.61,171.38 217.00,169.18
             222.55,166.40 228.27,169.55 227.83,176.00
             227.42,181.92 218.58,189.97 215.00,195.00
             217.77,195.06 221.31,194.99 223.57,196.85
             226.41,199.20 226.27,203.63 222.77,205.26
             222.77,205.26 205.13,207.00 205.13,207.00
             206.00,210.53 206.82,219.44 205.13,222.77
             203.58,226.38 197.33,227.72 196.00,220.00
             191.02,223.73 186.77,231.03 181.00,231.73
             176.27,232.30 172.40,228.84 169.00,226.08
             162.20,220.56 150.37,215.17 153.00,205.00
             153.00,205.00 114.00,206.00 114.00,206.00
             114.00,206.00 39.00,206.00 39.00,206.00
             39.00,209.98 39.56,219.63 37.69,222.77
             35.82,225.91 31.36,226.72 29.17,223.57
             27.38,220.98 28.00,209.64 28.00,206.00
             24.36,206.00 13.02,206.62 10.43,204.83
             7.28,202.64 8.09,198.18 11.23,196.31
             14.37,194.44 24.02,195.00 28.00,195.00
             28.00,195.00 28.00,124.00 28.00,124.00
             28.00,121.82 27.79,118.15 29.02,116.31
             30.83,113.60 38.82,111.41 39.00,124.00
             39.00,124.00 39.00,184.00 39.00,184.00
             39.00,184.00 80.00,142.00 80.00,142.00
             84.69,137.31 92.31,127.76 99.00,127.11
             101.78,126.84 104.60,127.22 106.99,128.74
             110.93,131.24 123.95,148.25 127.80,153.00
             130.95,156.86 134.56,161.64 140.00,161.84
             145.12,162.03 148.31,158.48 151.42,154.99
             151.42,154.99 159.72,146.00 159.72,146.00
             167.18,137.53 176.82,125.83 187.54,138.04
             187.54,138.04 195.00,148.00 195.00,148.00 Z
           M 132.00,71.53
           C 137.34,70.66 142.12,70.76 147.00,73.41
             163.65,82.48 161.35,108.72 141.00,113.32
             123.79,117.21 110.09,98.57 117.41,83.00
             120.46,76.52 125.37,73.51 132.00,71.53 Z
           M 206.00,181.00
           C 206.00,181.00 205.00,181.00 205.00,181.00
             205.00,181.00 206.00,182.00 206.00,182.00
             206.00,182.00 206.00,181.00 206.00,181.00 Z
           M 205.00,182.00
           C 205.00,182.00 204.00,182.00 204.00,182.00
             204.00,182.00 205.00,183.00 205.00,183.00
             205.00,183.00 205.00,182.00 205.00,182.00 Z
           M 203.00,185.00
           C 203.00,185.00 202.00,185.00 202.00,185.00
             202.00,185.00 203.00,186.00 203.00,186.00
             203.00,186.00 203.00,185.00 203.00,185.00 Z
           M 202.00,186.00
           C 202.00,186.00 201.00,186.00 201.00,186.00
             201.00,186.00 202.00,187.00 202.00,187.00
             202.00,187.00 202.00,186.00 202.00,186.00 Z
           M 201.00,187.00
           C 201.00,187.00 200.00,187.00 200.00,187.00
             200.00,187.00 201.00,188.00 201.00,188.00
             201.00,188.00 201.00,187.00 201.00,187.00 Z
           M 199.00,190.00
           C 199.00,190.00 198.00,190.00 198.00,190.00
             198.00,190.00 199.00,191.00 199.00,191.00
             199.00,191.00 199.00,190.00 199.00,190.00 Z
           M 198.00,191.00
           C 198.00,191.00 197.00,191.00 197.00,191.00
             197.00,191.00 198.00,192.00 198.00,192.00
             198.00,192.00 198.00,191.00 198.00,191.00 Z
           M 197.00,192.00
           C 197.00,192.00 196.00,192.00 196.00,192.00
             196.00,192.00 197.00,193.00 197.00,193.00
             197.00,193.00 197.00,192.00 197.00,192.00 Z
           M 215.00,195.00
           C 215.00,195.00 214.00,195.00 214.00,195.00
             214.00,195.00 215.00,196.00 215.00,196.00
             215.00,196.00 215.00,195.00 215.00,195.00 Z
           M 194.00,196.00
           C 194.00,196.00 193.00,196.00 193.00,196.00
             193.00,196.00 194.00,197.00 194.00,197.00
             194.00,197.00 194.00,196.00 194.00,196.00 Z
           M 214.00,196.00
           C 214.00,196.00 213.00,196.00 213.00,196.00
             213.00,196.00 214.00,197.00 214.00,197.00
             214.00,197.00 214.00,196.00 214.00,196.00 Z
           M 193.00,197.00
           C 193.00,197.00 192.00,197.00 192.00,197.00
             192.00,197.00 193.00,198.00 193.00,198.00
             193.00,198.00 193.00,197.00 193.00,197.00 Z
           M 192.00,198.00
           C 192.00,198.00 191.00,198.00 191.00,198.00
             191.00,198.00 192.00,199.00 192.00,199.00
             192.00,199.00 192.00,198.00 192.00,198.00 Z
           M 213.00,198.00
           C 213.00,198.00 212.00,198.00 212.00,198.00
             212.00,198.00 213.00,199.00 213.00,199.00
             213.00,199.00 213.00,198.00 213.00,198.00 Z
           M 212.00,199.00
           C 212.00,199.00 211.00,199.00 211.00,199.00
             211.00,199.00 212.00,200.00 212.00,200.00
             212.00,200.00 212.00,199.00 212.00,199.00 Z
           M 158.00,200.00
           C 158.00,200.00 153.00,203.00 153.00,203.00
             153.00,203.00 158.00,200.00 158.00,200.00 Z
           M 160.00,200.00
           C 160.00,200.00 159.00,201.00 159.00,201.00
             159.00,201.00 163.00,201.00 163.00,201.00
             163.00,201.00 160.00,200.00 160.00,200.00 Z
           M 211.00,200.00
           C 211.00,200.00 210.00,200.00 210.00,200.00
             210.00,200.00 211.00,201.00 211.00,201.00
             211.00,201.00 211.00,200.00 211.00,200.00 Z
           M 190.00,201.00
           C 190.00,201.00 189.00,201.00 189.00,201.00
             189.00,201.00 190.00,202.00 190.00,202.00
             190.00,202.00 190.00,201.00 190.00,201.00 Z
           M 189.00,202.00
           C 189.00,202.00 188.00,202.00 188.00,202.00
             188.00,202.00 189.00,203.00 189.00,203.00
             189.00,203.00 189.00,202.00 189.00,202.00 Z
           M 210.00,202.00
           C 210.00,202.00 209.00,202.00 209.00,202.00
             209.00,202.00 210.00,203.00 210.00,203.00
             210.00,203.00 210.00,202.00 210.00,202.00 Z
           M 153.00,203.00
           C 153.00,203.00 152.00,203.00 152.00,203.00
             152.00,203.00 153.00,204.00 153.00,204.00
             153.00,204.00 153.00,203.00 153.00,203.00 Z
           M 188.00,203.00
           C 188.00,203.00 187.00,203.00 187.00,203.00
             187.00,203.00 188.00,204.00 188.00,204.00
             188.00,204.00 188.00,203.00 188.00,203.00 Z
           M 209.00,203.00
           C 209.00,203.00 208.00,203.00 208.00,203.00
             208.00,203.00 209.00,204.00 209.00,204.00
             209.00,204.00 209.00,203.00 209.00,203.00 Z
           M 167.00,204.00
           C 167.00,204.00 166.00,204.00 166.00,204.00
             166.00,204.00 167.00,205.00 167.00,205.00
             167.00,205.00 167.00,204.00 167.00,204.00 Z
           M 169.00,204.00
           C 169.31,207.51 176.14,213.80 179.83,212.68
             182.29,211.93 185.55,207.09 187.00,205.00
             179.89,206.27 175.84,206.89 169.00,204.00 Z
           M 208.00,204.00
           C 208.00,204.00 207.00,204.00 207.00,204.00
             207.00,204.00 208.00,205.00 208.00,205.00
             208.00,205.00 208.00,204.00 208.00,204.00 Z
           M 205.00,208.00
           C 205.00,208.00 204.00,208.00 204.00,208.00
             204.00,208.00 205.00,209.00 205.00,209.00
             205.00,209.00 205.00,208.00 205.00,208.00 Z
           M 203.00,211.00
           C 203.00,211.00 202.00,211.00 202.00,211.00
             202.00,211.00 203.00,212.00 203.00,212.00
             203.00,212.00 203.00,211.00 203.00,211.00 Z
           M 202.00,212.00
           C 202.00,212.00 201.00,212.00 201.00,212.00
             201.00,212.00 202.00,213.00 202.00,213.00
             202.00,213.00 202.00,212.00 202.00,212.00 Z
           M 200.00,215.00
           C 200.00,215.00 199.00,215.00 199.00,215.00
             199.00,215.00 200.00,216.00 200.00,216.00
             200.00,216.00 200.00,215.00 200.00,215.00 Z
           M 199.00,216.00
           C 199.00,216.00 198.00,216.00 198.00,216.00
             198.00,216.00 199.00,217.00 199.00,217.00
             199.00,217.00 199.00,216.00 199.00,216.00 Z
           M 197.00,219.00
           C 197.00,219.00 196.00,219.00 196.00,219.00
             196.00,219.00 197.00,220.00 197.00,220.00
             197.00,220.00 197.00,219.00 197.00,219.00 Z" />
</svg>
